# xmcd
#
# Track frame offsets:
#	150
#	28375
#	59535
#	84334
#	111521
#	139325
#	162100
#	186756
#	211273
#	232359
#	250669
#	286911
#	302549
#	323206
#
# Disc length: 4581 seconds
#
# Revision: 0
# Processed by: cddbd v1.5.2PL0 Copyright (c) Steve Scherf et al.
# Submitted via: dBpowerAMP V4.0
#
DISCID=cd11e30e
DTITLE=ismael miranda - todomedia  ve
DYEAR=1900
DGENRE=salsa
TTITLE0=madre
TTITLE1=no me digas que es muy tarde
TTITLE2=asi se compone un son
TTITLE3=galera tres
TTITLE4=abandonada fue
TTITLE5=caretas
TTITLE6=señor sereno
TTITLE7=cipriano almenteros
TTITLE8=maria luisa
TTITLE9=se fue y me dejo
TTITLE10=tiene montuno
TTITLE11=la cosa no es como antes
TTITLE12=te solte la rienda
TTITLE13=la salsa vive
EXTD=salsa vieja y buena todomedia ve
EXTT0=
EXTT1=
EXTT2=
EXTT3=
EXTT4=
EXTT5=
EXTT6=
EXTT7=
EXTT8=
EXTT9=
EXTT10=
EXTT11=
EXTT12=
EXTT13=
PLAYORDER=
